<svg width="28" height="30" fill="none" xmlns="http://www.w3.org/2000/svg"><path clip-rule="evenodd" d="M20.25 7.017a6.003 6.003 0 0 0-1.949-4.077A6.363 6.363 0 0 0 14 1.28a6.36 6.36 0 0 0-4.301 1.661A6.003 6.003 0 0 0 7.75 7.017a6.004 6.004 0 0 0 1.949 4.076A6.363 6.363 0 0 0 14 12.755c1.6 0 3.139-.595 4.301-1.662a6.003 6.003 0 0 0 1.949-4.076Zm-4.958 10.516h-2.584c-2.89-.079-5.693.96-7.795 2.887-2.102 1.927-3.33 4.585-3.413 7.39v1.899h25v-1.895c-.084-2.805-1.311-5.463-3.413-7.39-2.102-1.927-4.905-2.965-7.795-2.887v-.004Z" stroke="#FDAA4B" stroke-width="2"/></svg>