<svg width="30" height="29" fill="none" xmlns="http://www.w3.org/2000/svg"><path fill-rule="evenodd" clip-rule="evenodd" d="m15.02 28.09-.654-.532c-.375-.306-9.28-7.537-12.005-11.221-3.198-4.323-3.113-10.025.194-13.56C4.24 1.08 6.458.167 8.743.226c2.286.06 4.462 1.09 6.072 2.874l.205.223.206-.223c1.61-1.784 3.786-2.814 6.071-2.874 2.286-.06 4.504.855 6.189 2.553 3.307 3.534 3.38 9.236.182 13.559-2.726 3.684-11.618 10.91-11.993 11.221l-.655.532ZM8.454 2.67c-1.618-.02-3.179.655-4.349 1.883C1.32 7.52 1.997 11.938 4.093 14.77c2.132 2.895 8.807 8.498 10.927 10.255 2.12-1.757 8.795-7.361 10.927-10.255 2.096-2.833 2.775-7.253-.012-10.218-1.263-1.258-2.92-1.931-4.626-1.877-1.704.054-3.324.83-4.52 2.165L15.02 6.81l-1.78-1.968a6.728 6.728 0 0 0-2.195-1.61 6.211 6.211 0 0 0-2.59-.56Z" fill="#FDAA4B"/></svg>