<svg width="18" height="17" fill="none" xmlns="http://www.w3.org/2000/svg"><path d="M13 6.554C13 3.002 10.09.125 6.5.125S0 3.002 0 6.554a6.34 6.34 0 0 0 1.188 3.696 9.492 9.492 0 0 1-1.12 2.19.39.39 0 0 0-.046.35c.04.12.128.192.228.192 1.144 0 2.09-.494 2.772-1.004A6.528 6.528 0 0 0 6.5 12.982c3.59 0 6.5-2.877 6.5-6.428Zm3.813 8.839A6.33 6.33 0 0 0 18 11.696c0-2.688-1.672-4.99-4.04-5.95.027.265.04.534.04.808 0 4.255-3.366 7.714-7.5 7.714-.338 0-.666-.032-.99-.077a6.503 6.503 0 0 0 5.99 3.934c1.281 0 2.472-.37 3.478-1.005.681.51 1.628 1.005 2.772 1.005.1 0 .19-.076.228-.193a.394.394 0 0 0-.047-.35 9.36 9.36 0 0 1-1.119-2.19Z" fill="#32656A"/></svg>