<svg width="30" height="30" fill="none" xmlns="http://www.w3.org/2000/svg"><path fill-rule="evenodd" clip-rule="evenodd" d="M26.822 23.562H8.281l1.55-2.958h16.28c.486-.002.951-.229 1.295-.63.343-.4.536-.943.537-1.51V9.559a2.359 2.359 0 0 0-.459-1.41c-.295-.391-.7-.644-1.143-.712l-16.605-2.5a.834.834 0 0 0-.375.031.92.92 0 0 0-.336.196c-.1.09-.184.203-.247.33a1.3 1.3 0 0 0-.092.852c.034.143.09.276.168.392.078.116.175.214.285.287.11.073.23.12.356.138L26.016 9.65v8.708H7.621l-.9-16.133-5.59-1.219a.86.86 0 0 0-.712.187c-.207.168-.35.424-.396.713-.047.288.006.587.146.831a.97.97 0 0 0 .605.474l4.125.903.922 16.493h1.758L6 23.628c-.652.135-1.252.503-1.716 1.053a3.96 3.96 0 0 0-.874 2.014 4.258 4.258 0 0 0 .29 2.232c.294.69.766 1.258 1.349 1.622a2.81 2.81 0 0 0 1.907.414c.657-.096 1.272-.428 1.76-.949a3.892 3.892 0 0 0 .962-1.96 4.275 4.275 0 0 0-.192-2.246H23.89a4.276 4.276 0 0 0-.171 2.323c.159.776.529 1.471 1.054 1.983.526.512 1.18.813 1.863.859a2.858 2.858 0 0 0 1.935-.606c.573-.438 1.008-1.08 1.242-1.83a4.28 4.28 0 0 0 .059-2.33c-.197-.764-.6-1.434-1.15-1.91a2.903 2.903 0 0 0-1.9-.735ZM6.564 28.764a1.19 1.19 0 0 1-.899-.433 1.61 1.61 0 0 1-.372-1.046c0-.392.134-.768.372-1.046a1.19 1.19 0 0 1 .899-.433c.33.011.644.172.875.448.23.276.36.645.36 1.03s-.13.755-.36 1.031c-.23.276-.544.437-.875.448Zm20.258 0a1.144 1.144 0 0 1-.71-.241c-.21-.16-.376-.39-.474-.66a1.704 1.704 0 0 1-.079-.856 1.57 1.57 0 0 1 .345-.762 1.23 1.23 0 0 1 .65-.41c.247-.058.503-.03.736.082.233.111.433.301.573.544.14.244.216.53.216.824 0 .39-.132.763-.367 1.04a1.189 1.189 0 0 1-.89.438Z" fill="#FDAA4B"/></svg>