<svg width="30" height="29" viewBox="0 0 30 29" fill="none" xmlns="http://www.w3.org/2000/svg">
<path fill-rule="evenodd" clip-rule="evenodd" d="M15.0203 28.0905L14.3663 27.5583C13.9907 27.2522 5.08668 20.021 2.36097 16.3369C-0.837199 12.0142 -0.752357 6.31169 2.55484 2.77791C4.23971 1.08041 6.45768 0.165568 8.74344 0.225351C11.0292 0.285135 13.2051 1.31489 14.8145 3.09856L15.0203 3.32208L15.2263 3.09856C16.8357 1.31489 19.0116 0.285135 21.2974 0.225351C23.5831 0.165568 25.8011 1.08041 27.486 2.77791C30.7932 6.31169 30.8659 12.0142 27.6677 16.3369C24.942 20.021 16.0501 27.2469 15.6745 27.5583L15.0203 28.0905ZM8.45448 2.67015C6.83649 2.64932 5.27528 3.3251 4.10535 4.55279C1.31907 7.51977 1.99746 11.9383 4.09323 14.7709C6.22534 17.6661 12.9003 23.2688 15.0203 25.0263C17.1403 23.2688 23.8153 17.6647 25.9474 14.7709C28.0432 11.9383 28.7216 7.51844 25.9353 4.55279C24.6718 3.29462 23.0142 2.62204 21.3093 2.67585C19.6045 2.72967 17.9847 3.50571 16.7891 4.8415L15.0203 6.80929L13.2396 4.8415C12.6119 4.15062 11.866 3.60305 11.0447 3.23038C10.2235 2.85771 9.3431 2.6673 8.45448 2.67015Z" fill="#FDAA4B"/>
</svg>
