<svg width="12" height="12" viewBox="0 0 12 12" fill="none" xmlns="http://www.w3.org/2000/svg">
<path d="M11.0021 4.01824L7.95835 3.51902L6.59794 0.415898C6.35419 -0.137227 5.64794 -0.144259 5.4021 0.415898L4.04169 3.51902L0.997937 4.01824C0.452103 4.1073 0.233353 4.86434 0.629187 5.29793L2.83127 7.71199L2.31044 11.1221C2.21669 11.7386 2.79377 12.2003 3.2771 11.912L6.00002 10.3018L8.72294 11.912C9.20627 12.1979 9.78335 11.7386 9.6896 11.1221L9.16877 7.71199L11.3709 5.29793C11.7667 4.86434 11.5479 4.1073 11.0021 4.01824ZM8.09585 7.31824L8.5896 10.562L6.00002 9.03152L3.41044 10.562L3.90419 7.31824L1.80835 5.02137L4.70419 4.54793L6.00002 1.5948L7.29585 4.54793L10.1917 5.02137L8.09585 7.31824Z" fill="#FFC600"/>
</svg>
